<svg version="1.1" id="Layer_1" xmlns="http://www.w3.org/2000/svg" xmlns:xlink="http://www.w3.org/1999/xlink" x="0px" y="0px"
	 width="100%" viewBox="0 0 204 192" enable-background="new 0 0 204 192" xml:space="preserve">
<path fill="#FF6F02" opacity="1.000000" stroke="none" 
	d="
M142.000000,193.000000 
	C94.666672,193.000000 47.833340,193.000000 1.000006,193.000000 
	C1.000004,129.000000 1.000004,65.000015 1.000002,1.000015 
	C68.999992,1.000010 136.999985,1.000010 204.999969,1.000005 
	C204.999985,64.999985 204.999985,128.999969 205.000000,192.999969 
	C184.166672,193.000000 163.333328,193.000000 142.000000,193.000000 
M121.949677,167.897476 
	C121.949677,167.897476 121.984520,168.010284 122.098274,168.531113 
	C122.334244,169.004379 122.570213,169.477631 122.931984,170.614563 
	C123.254044,171.383362 123.576103,172.152161 124.578850,172.970490 
	C125.033157,172.992020 125.487457,173.013535 126.722672,173.094635 
	C128.422592,172.428650 130.122528,171.762665 131.822449,171.096680 
	C131.716888,170.539368 131.611328,169.982056 131.505768,169.424744 
	C129.682007,169.063965 127.858246,168.703201 125.597565,168.266113 
	C124.983574,168.239639 124.369583,168.213165 123.493736,168.137161 
	C123.493736,168.137161 123.232330,168.085342 122.620781,168.035248 
	C122.416908,168.018875 122.213036,168.002518 121.949677,167.897476 
M68.418869,166.953476 
	C68.418869,166.953476 68.353043,166.928085 67.816330,166.433884 
	C67.134727,166.242874 66.453133,166.051865 65.196556,166.029434 
	C64.475723,166.706390 63.754887,167.383347 62.512718,167.900894 
	C62.108120,167.748184 61.703522,167.595459 61.298923,167.442734 
	C59.948158,171.134872 61.212257,172.815384 65.770111,172.640610 
	C66.454155,172.738510 67.138199,172.836426 68.587044,172.858841 
	C69.333923,171.465607 70.080803,170.072372 70.748123,168.116989 
	C69.992081,167.740906 69.236038,167.364822 68.418869,166.953476 
M89.748444,110.571999 
	C94.255424,113.809097 98.322647,111.170578 102.091942,109.198158 
	C105.845413,107.234009 109.142479,104.397659 112.635780,101.931183 
	C114.819725,103.571602 117.003670,105.212021 119.636642,107.189720 
	C121.566048,95.069031 123.383980,83.648643 125.198441,72.250084 
	C113.948174,76.426788 103.136620,80.440613 92.289185,84.467758 
	C91.638222,87.053940 98.558258,86.566345 94.295517,90.634979 
	C91.205009,90.752731 88.114502,90.870491 84.961250,90.155991 
	C85.302391,87.412254 85.643539,84.668510 86.250992,81.796997 
	C86.400047,81.591980 86.366676,81.423126 86.589409,80.567131 
	C87.072006,78.957390 87.554604,77.347641 88.316849,75.667397 
	C88.316849,75.667397 88.460274,75.418266 88.460274,75.418266 
	C88.460274,75.418266 88.312477,75.171616 88.767677,74.408302 
	C88.831879,74.119087 88.896072,73.829880 89.056381,73.578911 
	C89.056381,73.578911 88.976318,73.548813 89.560043,72.758583 
	C90.110321,71.570686 90.660591,70.382782 91.198502,69.261253 
	C91.198502,69.261253 91.112305,69.295151 91.708549,68.776512 
	C94.273361,65.265091 96.838173,61.753670 99.267845,58.084446 
	C99.267845,58.084446 99.216621,58.369804 99.714340,57.739300 
	C101.620300,55.857059 103.526268,53.974819 105.344902,52.013405 
	C105.344902,52.013405 105.260078,52.211437 105.953636,51.770294 
	C106.687363,50.957680 107.421082,50.145069 108.432732,49.408543 
	C108.651184,49.341526 108.752945,49.193909 109.415535,48.787769 
	C115.266190,44.802780 121.116837,40.817787 127.662598,36.703270 
	C129.486496,35.830456 131.310394,34.957645 133.134277,34.084831 
	C132.958420,33.636044 132.782547,33.187260 132.606674,32.738476 
	C130.971893,33.167725 129.337097,33.596973 126.859459,34.137646 
	C123.756004,35.044121 120.652550,35.950600 117.696838,37.008423 
	C117.696838,37.008423 117.699478,36.666111 116.973541,37.154823 
	C115.927734,37.665131 114.881927,38.175438 113.527687,38.558067 
	C113.281387,38.615204 113.133553,38.767834 112.347374,39.093002 
	C106.729362,42.035191 101.111359,44.977379 95.536072,47.983475 
	C95.536072,47.983475 95.680511,47.954491 94.962349,48.182354 
	C89.643723,52.982655 84.325104,57.782955 78.881134,62.486481 
	C78.881134,62.486481 78.960846,62.643051 78.274086,63.154118 
	C77.487450,64.326088 76.700806,65.498055 76.019028,66.621223 
	C76.019028,66.621223 75.909340,66.462059 75.331528,67.355186 
	C75.235413,67.696487 75.139297,68.037788 74.835388,68.363159 
	C74.835388,68.363159 74.878349,68.701057 74.243980,69.220413 
	C72.552292,74.498695 70.860603,79.776970 68.827919,85.733513 
	C68.907143,88.479233 68.986366,91.224960 68.970665,94.739845 
	C70.464203,97.849174 71.957741,100.958504 73.468620,104.305199 
	C73.468620,104.305199 73.883430,104.423988 74.263329,105.095161 
	C76.094963,106.519981 77.926598,107.944809 79.891777,109.240150 
	C79.891777,109.240150 79.639557,109.191673 80.309143,109.650223 
	C82.070930,110.241974 83.832726,110.833717 85.974060,111.706169 
	C86.244827,111.318588 86.515587,110.931007 86.921059,110.305061 
	C86.970757,110.078873 86.882301,109.941872 87.089890,109.294937 
	C87.951706,109.479378 88.813522,109.663811 89.748444,110.571999 
M72.446045,139.773056 
	C72.515671,136.657013 73.846436,132.673386 72.413773,130.590805 
	C68.430565,124.800545 61.902210,127.707886 56.221230,126.966331 
	C56.221230,135.937103 56.221230,144.331100 56.221230,153.332291 
	C58.375462,152.599838 59.976711,152.055405 61.517658,151.531479 
	C61.694847,148.517151 61.852852,145.829132 62.010857,143.141113 
	C62.389599,143.049500 62.768345,142.957870 63.147087,142.866257 
	C65.433563,146.188370 67.720039,149.510498 70.146713,153.036301 
	C71.783997,152.558273 73.538528,152.046021 75.546570,151.459747 
	C73.949471,149.087708 72.772858,146.846481 71.129234,145.027115 
	C69.183777,142.873657 69.963219,141.622040 72.446045,139.773056 
M117.866249,151.328461 
	C118.864166,150.233383 120.573868,149.226593 120.722786,148.026184 
	C121.124123,144.791031 120.860016,141.473343 120.860016,138.299408 
	C112.179497,136.459702 110.655731,136.980087 110.488350,141.647324 
	C112.028328,141.975235 113.581764,142.306015 116.341415,142.893646 
	C114.999046,144.866516 113.958282,147.465546 113.136559,147.398056 
	C110.904343,147.214676 107.156937,146.237717 106.892776,144.973175 
	C106.126434,141.304596 106.013451,137.071365 107.236969,133.625229 
	C107.728943,132.239594 112.405258,131.742279 115.112419,131.906662 
	C117.878716,132.074631 119.651306,132.087357 119.884521,128.892807 
	C113.819160,125.690536 106.646233,126.004471 103.072632,129.566010 
	C99.228737,133.396942 98.081009,141.188141 100.600868,146.345093 
	C103.065147,151.388306 107.152000,152.978561 115.160973,151.997437 
	C115.817032,151.917084 116.464882,151.769775 117.866249,151.328461 
M34.863228,143.395081 
	C34.863228,146.496185 34.863228,149.597290 34.863228,153.011826 
	C39.354424,153.011826 43.186172,153.240982 46.975319,152.937775 
	C49.895470,152.704117 53.079517,152.056961 51.425232,147.697372 
	C41.371674,146.201660 41.371674,146.201660 41.175392,143.227188 
	C49.482018,141.060028 49.482018,141.060028 49.271561,136.887894 
	C46.536377,136.887894 43.771439,136.887894 40.707638,136.887894 
	C40.810860,135.007446 40.888153,133.599258 40.989372,131.755325 
	C43.612156,131.755325 45.909649,131.705826 48.204231,131.766464 
	C52.028996,131.867523 52.320858,130.068939 51.004044,127.268692 
	C45.617485,127.268692 40.491322,127.268692 34.863342,127.268692 
	C34.863342,132.483749 34.863342,137.454803 34.863228,143.395081 
M78.729561,132.788254 
	C78.729561,139.481140 78.729561,146.174011 78.729561,153.305466 
	C81.232246,152.396515 82.687057,151.868134 84.010910,151.387314 
	C84.152565,148.759125 84.275291,146.482147 84.398979,144.187363 
	C86.664825,143.842346 88.638687,143.646225 90.564201,143.227661 
	C95.075592,142.246979 97.373375,139.343628 97.327347,134.756332 
	C97.285141,130.550156 94.409554,127.665054 89.606003,127.273643 
	C86.175224,126.994102 82.703308,127.219353 78.996582,127.219353 
	C78.898781,128.922928 78.814339,130.393692 78.729561,132.788254 
M124.831543,139.704926 
	C124.836624,142.194473 124.278603,144.868912 125.016953,147.117706 
	C125.659561,149.074951 127.488678,151.491043 129.290192,152.023346 
	C132.091141,152.850937 135.327911,152.421494 138.348587,152.161072 
	C139.314560,152.077789 140.938507,150.874969 140.971451,150.127518 
	C141.201630,144.906342 141.093201,139.670227 141.093201,134.627792 
	C137.037064,133.808243 135.613464,135.059891 135.865891,138.411896 
	C136.027451,140.557190 136.220612,142.797791 135.764725,144.854965 
	C135.494736,146.073334 133.989349,147.017914 133.039459,148.085602 
	C132.105957,147.066696 130.481766,146.119293 130.367538,145.015594 
	C130.015091,141.610214 130.238937,138.145187 130.238937,134.707901 
	C126.050880,133.708862 124.322990,134.928421 124.831543,139.704926 
M156.294006,130.829117 
	C155.728088,132.085007 154.975052,133.294556 154.649307,134.609909 
	C154.328812,135.903976 154.191315,137.351273 154.428909,138.647903 
	C154.716583,140.217850 155.838959,141.671097 155.965912,143.226624 
	C156.219635,146.335236 156.041168,149.479126 156.041168,152.903214 
	C158.065430,152.394135 159.608200,152.006119 161.357544,151.566177 
	C161.357544,148.347794 160.804077,145.057556 161.532837,142.081299 
	C162.114853,139.704315 164.258209,137.709641 165.419571,135.976517 
	C163.660385,134.462814 162.537216,133.496368 161.414047,132.529938 
	C162.677505,131.664398 164.014801,130.886200 165.178436,129.902573 
	C165.951797,129.248856 166.980743,128.293930 166.968552,127.487846 
	C166.956863,126.715050 165.837875,125.416573 165.052841,125.289070 
	C161.035446,124.636581 157.784882,125.716225 156.294006,130.829117 
M145.642090,131.770996 
	C145.642090,138.809250 145.642090,145.847504 145.642090,153.489365 
	C148.116714,152.428574 149.532272,151.821747 150.551270,151.384933 
	C150.551270,142.366287 150.551270,133.835617 150.551270,125.357323 
	C144.744629,123.996567 145.697144,127.831612 145.642090,131.770996 
M74.655716,172.399368 
	C76.061905,167.313629 77.977898,171.372559 79.764656,172.612640 
	C80.253296,170.148514 80.646393,168.166199 81.130554,165.724670 
	C78.201836,165.923782 75.957443,166.076370 72.835762,166.288605 
	C73.253105,168.632568 73.616562,170.673843 74.655716,172.399368 
M82.471626,169.500076 
	C82.471626,169.500076 82.443642,169.483643 82.471626,169.500076 
z"/>
<path fill="#FFFAF8" opacity="1.000000" stroke="none" 
	d="
M105.432228,52.092579 
	C103.526268,53.974819 101.620300,55.857059 99.471344,58.009178 
	C99.228355,58.279053 99.402985,58.242245 99.402985,58.242249 
	C96.838173,61.753670 94.273361,65.265091 91.431725,69.024094 
	C91.154900,69.271683 91.210861,69.194878 91.210861,69.194878 
	C90.660591,70.382782 90.110321,71.570686 89.292847,73.139221 
	C89.025658,73.519852 88.960274,73.540680 88.960274,73.540680 
	C88.896072,73.829880 88.831879,74.119087 88.482071,74.877831 
	C88.196457,75.347359 88.037201,75.737900 88.037201,75.737900 
	C87.554604,77.347641 87.072006,78.957390 86.339172,81.032944 
	C86.088936,81.498764 85.984680,81.924774 85.984680,81.924774 
	C85.643539,84.668510 85.302391,87.412254 84.794960,90.871498 
	C84.760452,93.394836 84.892235,95.202667 84.990646,97.416275 
	C84.963470,98.906502 84.969681,99.990952 84.976219,101.466171 
	C85.536255,104.535988 86.095970,107.215019 86.655685,109.894058 
	C86.882301,109.941872 86.970757,110.078873 86.548767,110.635323 
	C85.982491,111.118881 85.788506,111.272171 85.594513,111.425461 
	C83.832726,110.833717 82.070930,110.241974 80.014999,109.428040 
	C79.720848,109.205856 79.758232,109.369637 79.758232,109.369637 
	C77.926598,107.944809 76.094963,106.519981 74.009155,104.693298 
	C73.754974,104.291435 73.451279,104.067833 73.451279,104.067833 
	C71.957741,100.958504 70.464203,97.849174 69.208023,94.022842 
	C69.353233,90.555641 69.261070,87.805443 69.168907,85.055252 
	C70.860603,79.776970 72.552292,74.498695 74.583939,68.905792 
	C74.923904,68.591171 75.043182,68.379089 75.043182,68.379089 
	C75.139297,68.037788 75.235413,67.696487 75.625732,66.943802 
	C75.919937,66.532425 75.914169,66.670021 75.914169,66.670021 
	C76.700806,65.498055 77.487450,64.326088 78.610672,62.886200 
	C78.947250,62.618286 79.006477,62.583260 79.006477,62.583260 
	C84.325104,57.782955 89.643723,52.982655 95.292542,48.054443 
	C95.622734,47.926533 95.493347,47.919563 95.493347,47.919563 
	C101.111359,44.977379 106.729362,42.035191 112.847610,39.014572 
	C113.520638,38.872238 113.683395,38.788773 113.836121,38.685745 
	C114.881927,38.175438 115.927734,37.665131 117.333694,36.963097 
	C117.693848,36.771374 117.549095,36.857075 117.549095,36.857079 
	C120.652550,35.950600 123.756004,35.044121 127.236488,34.443756 
	C127.398170,35.444176 127.182831,36.138485 126.967484,36.832794 
	C121.116837,40.817787 115.266190,44.802780 108.974762,48.930534 
	C108.533981,49.073303 108.154808,49.332462 108.154800,49.332458 
	C107.421082,50.145069 106.687363,50.957680 105.626389,51.956074 
	C105.299133,52.141853 105.432228,52.092579 105.432228,52.092579 
z"/>
<path fill="#FFFAF8" opacity="1.000000" stroke="none" 
	d="
M95.009109,90.617310 
	C98.558258,86.566345 91.638222,87.053940 92.289185,84.467758 
	C103.136620,80.440613 113.948174,76.426788 125.198441,72.250084 
	C123.383980,83.648643 121.566048,95.069031 119.636642,107.189720 
	C117.003670,105.212021 114.819725,103.571602 112.637726,101.937462 
	C109.142479,104.397659 105.845413,107.234009 102.091942,109.198158 
	C98.322647,111.170578 94.255424,113.809097 89.729736,109.803528 
	C88.940582,106.712502 88.170135,104.389946 87.258957,101.736191 
	C87.109985,100.932045 87.101738,100.459099 87.278854,99.645294 
	C87.852211,96.806595 88.240189,94.308762 88.515816,92.534279 
	C91.159302,91.753868 93.084206,91.185585 95.009109,90.617310 
z"/>
<path fill="#FFF2EB" opacity="1.000000" stroke="none" 
	d="
M72.208664,140.083496 
	C69.963219,141.622040 69.183777,142.873657 71.129234,145.027115 
	C72.772858,146.846481 73.949471,149.087708 75.546570,151.459747 
	C73.538528,152.046021 71.783997,152.558273 70.146713,153.036301 
	C67.720039,149.510498 65.433563,146.188370 63.147087,142.866257 
	C62.768345,142.957870 62.389599,143.049500 62.010857,143.141113 
	C61.852852,145.829132 61.694847,148.517151 61.517658,151.531479 
	C59.976711,152.055405 58.375462,152.599838 56.221230,153.332291 
	C56.221230,144.331100 56.221230,135.937103 56.221230,126.966331 
	C61.902210,127.707886 68.430565,124.800545 72.413773,130.590805 
	C73.846436,132.673386 72.515671,136.657013 72.208664,140.083496 
M66.091919,131.922852 
	C64.698204,131.922852 63.304493,131.922852 61.988941,131.922852 
	C61.988941,134.344513 61.988941,136.252487 61.988941,139.091873 
	C64.260582,138.304764 66.493065,138.141846 67.557152,136.942413 
	C68.237823,136.175156 67.192474,133.876633 66.091919,131.922852 
z"/>
<path fill="#FFF3EB" opacity="1.000000" stroke="none" 
	d="
M117.491402,151.491028 
	C116.464882,151.769775 115.817032,151.917084 115.160973,151.997437 
	C107.152000,152.978561 103.065147,151.388306 100.600868,146.345093 
	C98.081009,141.188141 99.228737,133.396942 103.072632,129.566010 
	C106.646233,126.004471 113.819160,125.690536 119.884521,128.892807 
	C119.651306,132.087357 117.878716,132.074631 115.112419,131.906662 
	C112.405258,131.742279 107.728943,132.239594 107.236969,133.625229 
	C106.013451,137.071365 106.126434,141.304596 106.892776,144.973175 
	C107.156937,146.237717 110.904343,147.214676 113.136559,147.398056 
	C113.958282,147.465546 114.999046,144.866516 116.341415,142.893646 
	C113.581764,142.306015 112.028328,141.975235 110.488350,141.647324 
	C110.655731,136.980087 112.179497,136.459702 120.860016,138.299408 
	C120.860016,141.473343 121.124123,144.791031 120.722786,148.026184 
	C120.573868,149.226593 118.864166,150.233383 117.491402,151.491028 
z"/>
<path fill="#FFEEE5" opacity="1.000000" stroke="none" 
	d="
M34.863285,142.910461 
	C34.863342,137.454803 34.863342,132.483749 34.863342,127.268692 
	C40.491322,127.268692 45.617485,127.268692 51.004044,127.268692 
	C52.320858,130.068939 52.028996,131.867523 48.204231,131.766464 
	C45.909649,131.705826 43.612156,131.755325 40.989372,131.755325 
	C40.888153,133.599258 40.810860,135.007446 40.707638,136.887894 
	C43.771439,136.887894 46.536377,136.887894 49.271561,136.887894 
	C49.482018,141.060028 49.482018,141.060028 41.175392,143.227188 
	C41.371674,146.201660 41.371674,146.201660 51.425232,147.697372 
	C53.079517,152.056961 49.895470,152.704117 46.975319,152.937775 
	C43.186172,153.240982 39.354424,153.011826 34.863228,153.011826 
	C34.863228,149.597290 34.863228,146.496185 34.863285,142.910461 
z"/>
<path fill="#FFF5F0" opacity="1.000000" stroke="none" 
	d="
M78.729736,132.326355 
	C78.814339,130.393692 78.898781,128.922928 78.996582,127.219353 
	C82.703308,127.219353 86.175224,126.994102 89.606003,127.273643 
	C94.409554,127.665054 97.285141,130.550156 97.327347,134.756332 
	C97.373375,139.343628 95.075592,142.246979 90.564201,143.227661 
	C88.638687,143.646225 86.664825,143.842346 84.398979,144.187363 
	C84.275291,146.482147 84.152565,148.759125 84.010910,151.387314 
	C82.687057,151.868134 81.232246,152.396515 78.729561,153.305466 
	C78.729561,146.174011 78.729561,139.481140 78.729736,132.326355 
M91.802048,134.605530 
	C90.336960,130.751404 87.371437,131.706345 84.537102,131.891022 
	C84.537102,134.521393 84.537102,136.684875 84.537102,139.011093 
	C87.895699,138.992416 91.021904,139.504272 91.802048,134.605530 
z"/>
<path fill="#FFF5F0" opacity="1.000000" stroke="none" 
	d="
M124.831680,139.249512 
	C124.322990,134.928421 126.050880,133.708862 130.238937,134.707901 
	C130.238937,138.145187 130.015091,141.610214 130.367538,145.015594 
	C130.481766,146.119293 132.105957,147.066696 133.039459,148.085602 
	C133.989349,147.017914 135.494736,146.073334 135.764725,144.854965 
	C136.220612,142.797791 136.027451,140.557190 135.865891,138.411896 
	C135.613464,135.059891 137.037064,133.808243 141.093201,134.627792 
	C141.093201,139.670227 141.201630,144.906342 140.971451,150.127518 
	C140.938507,150.874969 139.314560,152.077789 138.348587,152.161072 
	C135.327911,152.421494 132.091141,152.850937 129.290192,152.023346 
	C127.488678,151.491043 125.659561,149.074951 125.016953,147.117706 
	C124.278603,144.868912 124.836624,142.194473 124.831680,139.249512 
z"/>
<path fill="#FFF5EF" opacity="1.000000" stroke="none" 
	d="
M156.395920,130.462158 
	C157.784882,125.716225 161.035446,124.636581 165.052841,125.289070 
	C165.837875,125.416573 166.956863,126.715050 166.968552,127.487846 
	C166.980743,128.293930 165.951797,129.248856 165.178436,129.902573 
	C164.014801,130.886200 162.677505,131.664398 161.414047,132.529938 
	C162.537216,133.496368 163.660385,134.462814 165.419571,135.976517 
	C164.258209,137.709641 162.114853,139.704315 161.532837,142.081299 
	C160.804077,145.057556 161.357544,148.347794 161.357544,151.566177 
	C159.608200,152.006119 158.065430,152.394135 156.041168,152.903214 
	C156.041168,149.479126 156.219635,146.335236 155.965912,143.226624 
	C155.838959,141.671097 154.716583,140.217850 154.428909,138.647903 
	C154.191315,137.351273 154.328812,135.903976 154.649307,134.609909 
	C154.975052,133.294556 155.728088,132.085007 156.395920,130.462158 
z"/>
<path fill="#FFF5EE" opacity="1.000000" stroke="none" 
	d="
M145.642136,131.308762 
	C145.697144,127.831612 144.744629,123.996567 150.551270,125.357323 
	C150.551270,133.835617 150.551270,142.366287 150.551270,151.384933 
	C149.532272,151.821747 148.116714,152.428574 145.642090,153.489365 
	C145.642090,145.847504 145.642090,138.809250 145.642136,131.308762 
z"/>
<path fill="#FFAA75" opacity="1.000000" stroke="none" 
	d="
M74.317871,172.557251 
	C73.616562,170.673843 73.253105,168.632568 72.835762,166.288605 
	C75.957443,166.076370 78.201836,165.923782 81.130554,165.724670 
	C80.646393,168.166199 80.253296,170.148514 79.764656,172.612640 
	C77.977898,171.372559 76.061905,167.313629 74.317871,172.557251 
z"/>
<path fill="#FFF9F5" opacity="1.000000" stroke="none" 
	d="
M94.652313,90.626144 
	C93.084206,91.185585 91.159302,91.753868 88.515816,92.534279 
	C88.240189,94.308762 87.852211,96.806595 87.138039,99.327118 
	C86.215904,98.570038 85.619957,97.790268 85.024017,97.010498 
	C84.892235,95.202667 84.760452,93.394836 84.826332,91.287628 
	C88.114502,90.870491 91.205009,90.752731 94.652313,90.626144 
z"/>
<path fill="#FFF9F5" opacity="1.000000" stroke="none" 
	d="
M87.399689,102.067383 
	C88.170135,104.389946 88.940582,106.712502 89.693184,109.441650 
	C88.813522,109.663811 87.951706,109.479378 86.872787,109.594498 
	C86.095970,107.215019 85.536255,104.535988 85.220901,101.707237 
	C86.110069,101.727478 86.754883,101.897430 87.399689,102.067383 
z"/>
<path fill="#FFAA72" opacity="1.000000" stroke="none" 
	d="
M126.034485,168.342422 
	C127.858246,168.703201 129.682007,169.063965 131.505768,169.424744 
	C131.611328,169.982056 131.716888,170.539368 131.822449,171.096680 
	C130.122528,171.762665 128.422592,172.428650 126.335724,172.671661 
	C125.977348,170.946609 126.005913,169.644516 126.034485,168.342422 
z"/>
<path fill="#FFF9F5" opacity="1.000000" stroke="none" 
	d="
M68.998413,85.394379 
	C69.261070,87.805443 69.353233,90.555641 69.255493,93.638260 
	C68.986366,91.224960 68.907143,88.479233 68.998413,85.394379 
z"/>
<path fill="#FFF9F5" opacity="1.000000" stroke="none" 
	d="
M127.315041,36.768032 
	C127.182831,36.138485 127.398170,35.444176 127.657913,34.388046 
	C129.337097,33.596973 130.971893,33.167725 132.606674,32.738476 
	C132.782547,33.187260 132.958420,33.636044 133.134277,34.084831 
	C131.310394,34.957645 129.486496,35.830456 127.315041,36.768032 
z"/>
<path fill="#FFBF90" opacity="1.000000" stroke="none" 
	d="
M67.822243,172.934326 
	C67.138199,172.836426 66.454155,172.738510 65.406250,172.573761 
	C65.042381,172.506927 65.026588,172.558563 65.169495,172.207642 
	C65.408134,170.625015 65.503860,169.393326 65.688690,167.785095 
	C65.775703,166.892654 65.773621,166.376755 65.771530,165.860855 
	C66.453133,166.051865 67.134727,166.242874 67.871925,167.036880 
	C67.916451,168.462448 67.905388,169.285034 67.857849,170.266602 
	C67.821381,170.425598 67.848816,170.751892 67.838966,171.068054 
	C67.881035,171.588593 67.932945,171.792984 67.930176,172.229187 
	C67.875481,172.460983 67.822243,172.934326 67.822243,172.934326 
z"/>
<path fill="#FFA772" opacity="1.000000" stroke="none" 
	d="
M65.026588,172.558563 
	C65.026588,172.558563 65.042381,172.506927 65.066605,172.495331 
	C61.212257,172.815384 59.948158,171.134872 61.298923,167.442734 
	C61.703522,167.595459 62.108120,167.748184 62.930580,167.990173 
	C63.348442,168.079437 63.657745,168.019836 63.711670,168.270615 
	C63.175537,169.336121 62.585472,170.150833 61.931850,171.053314 
	C63.105831,171.624329 64.066208,172.091446 65.026588,172.558563 
z"/>
<path fill="#FF7F29" opacity="1.000000" stroke="none" 
	d="
M125.816025,168.304260 
	C126.005913,169.644516 125.977348,170.946609 125.945274,172.641876 
	C125.487457,173.013535 125.033157,172.992020 124.267380,172.549988 
	C123.889145,170.815231 123.822372,169.500961 123.755592,168.186707 
	C124.369583,168.213165 124.983574,168.239639 125.816025,168.304260 
z"/>
<path fill="#FF6F0B" opacity="1.000000" stroke="none" 
	d="
M67.894325,170.107605 
	C67.905388,169.285034 67.916451,168.462448 68.140282,167.283981 
	C68.353043,166.928085 68.418869,166.953476 68.667290,167.185730 
	C69.553032,167.838364 70.190353,168.258743 70.827682,168.679123 
	C70.080803,170.072372 69.333923,171.465607 68.204643,172.896576 
	C67.822243,172.934326 67.875481,172.460983 68.114441,172.088089 
	C68.591774,171.516388 68.810661,171.298035 68.895050,170.827850 
	C68.484795,170.432892 68.189560,170.270248 67.894325,170.107605 
z"/>
<path fill="#FFBC8D" opacity="1.000000" stroke="none" 
	d="
M123.624664,168.161926 
	C123.822372,169.500961 123.889145,170.815231 123.927040,172.525223 
	C123.576103,172.152161 123.254044,171.383362 122.943008,169.972473 
	C123.046799,168.915359 123.139565,168.500351 123.232330,168.085342 
	C123.232330,168.085342 123.493736,168.137161 123.624664,168.161926 
z"/>
<path fill="#FF9C60" opacity="1.000000" stroke="none" 
	d="
M70.787903,168.398056 
	C70.190353,168.258743 69.553032,167.838364 68.697861,167.203369 
	C69.236038,167.364822 69.992081,167.740906 70.787903,168.398056 
z"/>
<path fill="#FF853B" opacity="1.000000" stroke="none" 
	d="
M63.657745,168.019836 
	C63.657745,168.019836 63.348442,168.079437 63.191246,168.069855 
	C63.754887,167.383347 64.475723,166.706390 65.484047,165.945145 
	C65.773621,166.376755 65.775703,166.892654 65.366653,167.751678 
	C64.522926,168.069824 64.090332,168.044830 63.657745,168.019836 
z"/>
<path fill="#FF6D00" opacity="1.000000" stroke="none" 
	d="
M122.926559,168.060303 
	C123.139565,168.500351 123.046799,168.915359 122.880112,169.640625 
	C122.570213,169.477631 122.334244,169.004379 122.048729,168.265625 
	C121.999184,168.000153 122.009155,167.986145 122.009155,167.986145 
	C122.213036,168.002518 122.416908,168.018875 122.926559,168.060303 
z"/>
<path fill="#FFAA75" opacity="1.000000" stroke="none" 
	d="
M82.457634,169.491852 
	C82.443642,169.483643 82.471626,169.500076 82.457634,169.491852 
z"/>
<path fill="#FFF9F5" opacity="1.000000" stroke="none" 
	d="
M117.622971,36.932747 
	C117.549095,36.857075 117.693848,36.771374 117.696663,36.718742 
	C117.699478,36.666111 117.696838,37.008423 117.622971,36.932747 
z"/>
<path fill="#FFF9F5" opacity="1.000000" stroke="none" 
	d="
M113.681900,38.621906 
	C113.683395,38.788773 113.520638,38.872238 113.216011,38.976051 
	C113.133553,38.767834 113.281387,38.615204 113.681900,38.621906 
z"/>
<path fill="#FF6D00" opacity="1.000000" stroke="none" 
	d="
M121.991852,168.005219 
	C121.984520,168.010284 121.949677,167.897476 121.979416,167.941803 
	C122.009155,167.986145 121.999184,168.000153 121.991852,168.005219 
z"/>
<path fill="#FFF9F5" opacity="1.000000" stroke="none" 
	d="
M95.514709,47.951519 
	C95.493347,47.919563 95.622734,47.926533 95.651627,47.940514 
	C95.680511,47.954491 95.536072,47.983475 95.514709,47.951519 
z"/>
<path fill="#FFF9F5" opacity="1.000000" stroke="none" 
	d="
M108.293770,49.370502 
	C108.154808,49.332462 108.533981,49.073303 108.636002,49.019493 
	C108.752945,49.193909 108.651184,49.341526 108.293770,49.370502 
z"/>
<path fill="#FFF9F5" opacity="1.000000" stroke="none" 
	d="
M105.388565,52.052994 
	C105.432228,52.092579 105.299133,52.141853 105.279602,52.176643 
	C105.260078,52.211437 105.344902,52.013405 105.388565,52.052994 
z"/>
<path fill="#FFF9F5" opacity="1.000000" stroke="none" 
	d="
M99.335419,58.163345 
	C99.402985,58.242245 99.228355,58.279053 99.222488,58.324429 
	C99.216621,58.369804 99.267845,58.084446 99.335419,58.163345 
z"/>
<path fill="#FFF9F5" opacity="1.000000" stroke="none" 
	d="
M78.943802,62.534870 
	C79.006477,62.583260 78.947250,62.618286 78.954048,62.630669 
	C78.960846,62.643051 78.881134,62.486481 78.943802,62.534870 
z"/>
<path fill="#FFF9F5" opacity="1.000000" stroke="none" 
	d="
M75.966599,66.645622 
	C75.914169,66.670021 75.919937,66.532425 75.914642,66.497238 
	C75.909340,66.462059 76.019028,66.621223 75.966599,66.645622 
z"/>
<path fill="#FFF9F5" opacity="1.000000" stroke="none" 
	d="
M74.939285,68.371124 
	C75.043182,68.379089 74.923904,68.591171 74.901123,68.646118 
	C74.878349,68.701057 74.835388,68.363159 74.939285,68.371124 
z"/>
<path fill="#FFF9F5" opacity="1.000000" stroke="none" 
	d="
M91.204681,69.228065 
	C91.210861,69.194878 91.154900,69.271683 91.133606,69.283417 
	C91.112305,69.295151 91.198502,69.261253 91.204681,69.228065 
z"/>
<path fill="#FFF9F5" opacity="1.000000" stroke="none" 
	d="
M89.008331,73.559799 
	C88.960274,73.540680 89.025658,73.519852 89.000992,73.534332 
	C88.976318,73.548813 89.056381,73.578911 89.008331,73.559799 
z"/>
<path fill="#FFF9F5" opacity="1.000000" stroke="none" 
	d="
M88.177025,75.702652 
	C88.037201,75.737900 88.196457,75.347359 88.254471,75.259491 
	C88.312477,75.171616 88.460274,75.418266 88.460274,75.418266 
	C88.460274,75.418266 88.316849,75.667397 88.177025,75.702652 
z"/>
<path fill="#FFF9F5" opacity="1.000000" stroke="none" 
	d="
M86.117836,81.860886 
	C85.984680,81.924774 86.088936,81.498764 86.119904,81.394608 
	C86.366676,81.423126 86.400047,81.591980 86.117836,81.860886 
z"/>
<path fill="#FFF9F5" opacity="1.000000" stroke="none" 
	d="
M86.481415,110.754501 
	C86.515587,110.931007 86.244827,111.318588 85.784286,111.565811 
	C85.788506,111.272171 85.982491,111.118881 86.481415,110.754501 
z"/>
<path fill="#FFF9F5" opacity="1.000000" stroke="none" 
	d="
M79.825005,109.304893 
	C79.758232,109.369637 79.720848,109.205856 79.680206,109.198761 
	C79.639557,109.191673 79.891777,109.240150 79.825005,109.304893 
z"/>
<path fill="#FFF9F5" opacity="1.000000" stroke="none" 
	d="
M73.459946,104.186516 
	C73.451279,104.067833 73.754974,104.291435 73.819199,104.357712 
	C73.883430,104.423988 73.468620,104.305199 73.459946,104.186516 
z"/>
<path fill="#FF6F02" opacity="1.000000" stroke="none" 
	d="
M87.258957,101.736191 
	C86.754883,101.897430 86.110069,101.727478 85.220581,101.316467 
	C84.969681,99.990952 84.963470,98.906502 84.990639,97.416275 
	C85.619957,97.790268 86.215904,98.570038 86.952667,99.667976 
	C87.101738,100.459099 87.109985,100.932045 87.258957,101.736191 
z"/>
<path fill="#FF7413" opacity="1.000000" stroke="none" 
	d="
M66.506424,132.093719 
	C67.192474,133.876633 68.237823,136.175156 67.557152,136.942413 
	C66.493065,138.141846 64.260582,138.304764 61.988941,139.091873 
	C61.988941,136.252487 61.988941,134.344513 61.988941,131.922852 
	C63.304493,131.922852 64.698204,131.922852 66.506424,132.093719 
z"/>
<path fill="#FF7612" opacity="1.000000" stroke="none" 
	d="
M91.833908,135.006897 
	C91.021904,139.504272 87.895699,138.992416 84.537102,139.011093 
	C84.537102,136.684875 84.537102,134.521393 84.537102,131.891022 
	C87.371437,131.706345 90.336960,130.751404 91.833908,135.006897 
z"/>
<path fill="#FF6B0B" opacity="1.000000" stroke="none" 
	d="
M63.711670,168.270615 
	C64.090332,168.044830 64.522926,168.069824 65.277557,168.128220 
	C65.503860,169.393326 65.408134,170.625015 65.169495,172.207642 
	C64.066208,172.091446 63.105831,171.624329 61.931850,171.053314 
	C62.585472,170.150833 63.175537,169.336121 63.711670,168.270615 
z"/>
<path fill="#FF6F02" opacity="1.000000" stroke="none" 
	d="
M69.010071,171.060150 
	C68.810661,171.298035 68.591774,171.516388 68.169136,171.856293 
	C67.932945,171.792984 67.881035,171.588593 68.124786,171.163513 
	C68.617004,170.981949 68.813538,171.021057 69.010071,171.060150 
z"/>
<path fill="#FF9C60" opacity="1.000000" stroke="none" 
	d="
M68.895050,170.827850 
	C68.813538,171.021057 68.617004,170.981949 68.134644,170.847351 
	C67.848816,170.751892 67.821381,170.425598 67.857849,170.266602 
	C68.189560,170.270248 68.484795,170.432892 68.895050,170.827850 
z"/>
</svg>